<svg width="45" height="58" viewBox="0 0 45 58" fill="none" xmlns="http://www.w3.org/2000/svg">
<g clip-path="url(#clip0)">
<path d="M22.4224 0C10.1847 0 0.229492 13.0088 0.229492 29C0.229492 44.9912 10.1847 58 22.4224 58C34.66 58 44.6152 44.9912 44.6152 29C44.6152 13.0088 34.66 0 22.4224 0Z" fill="#C4C4C4"/>
<path d="M33.6706 22.8544L21.6493 38.5625C21.2887 39.0338 20.8153 39.2709 20.3419 39.2709C19.8685 39.2709 19.395 39.0338 19.0344 38.5625L13.0239 30.7085C12.3006 29.7637 12.3006 28.2362 13.0239 27.2914C13.7469 26.3462 14.9156 26.3462 15.6389 27.2914L20.3419 33.4369L31.0556 19.4374C31.7786 18.4922 32.9473 18.4922 33.6706 19.4374C34.3936 20.3822 34.3936 21.9092 33.6706 22.8544Z" fill="#FAFAFA"/>
</g>
<defs>
<clipPath id="clip0">
<rect width="44.3857" height="58" fill="white" transform="translate(0.229492)"/>
</clipPath>
</defs>
</svg>