<svg width="44" height="58" viewBox="0 0 44 58" fill="none" xmlns="http://www.w3.org/2000/svg">
<g clip-path="url(#clip0)">
<path d="M21.9528 0C9.93371 0 0.15625 13.0088 0.15625 29C0.15625 44.9912 9.93371 58 21.9528 58C33.9719 58 43.7494 44.9912 43.7494 29C43.7494 13.0088 33.9719 0 21.9528 0Z" fill="#ED1F84"/>
<path d="M33.0002 22.8544L21.1936 38.5625C20.8394 39.0338 20.3745 39.2709 19.9095 39.2709C19.4446 39.2709 18.9796 39.0338 18.6254 38.5625L12.7223 30.7085C12.0119 29.7637 12.0119 28.2362 12.7223 27.2914C13.4323 26.3462 14.5801 26.3462 15.2905 27.2914L19.9095 33.4369L30.432 19.4374C31.142 18.4922 32.2898 18.4922 33.0002 19.4374C33.7103 20.3822 33.7103 21.9092 33.0002 22.8544Z" fill="#FAFAFA"/>
</g>
<defs>
<clipPath id="clip0">
<rect width="43.5931" height="58" fill="white" transform="translate(0.15625)"/>
</clipPath>
</defs>
</svg>
